<svg width="241" height="362" viewBox="0 0 241 362" fill="none" xmlns="http://www.w3.org/2000/svg">
<path d="M200 1H40C17.9086 1 0 18.9086 0 41V321C0 343.091 17.9086 361 40 361H200C222.091 361 240 343.091 240 321V41C240 18.9086 222.091 1 200 1Z" fill="white" stroke="black" stroke-width="2"/>
<path d="M200 21H40C28.9543 21 20 29.9543 20 41V321C20 332.046 28.9543 341 40 341H200C211.046 341 220 332.046 220 321V41C220 29.9543 211.046 21 200 21Z" fill="black"/>
<path fill-rule="evenodd" clip-rule="evenodd" d="M180 80.9999C91.6344 80.9999 20 152.634 20 241C20 263.091 37.9086 281 60 281C148.366 281 220 209.366 220 121C220 98.9085 202.091 80.9999 180 80.9999Z" fill="white"/>
<path fill-rule="evenodd" clip-rule="evenodd" d="M31.75 181C24.2373 199.542 20 219.763 20 241C20 263.091 37.9086 281 60 281L120 181H31.75Z" fill="#FFAA00"/>
<path fill-rule="evenodd" clip-rule="evenodd" d="M120 181L60 281C127.129 281 184.502 239.611 208.25 181H120Z" fill="#00AA00"/>
<path fill-rule="evenodd" clip-rule="evenodd" d="M180 80.9999C112.871 80.9999 55.4976 122.389 31.75 181H120L180 80.9999Z" fill="#FF5555"/>
<path fill-rule="evenodd" clip-rule="evenodd" d="M180 80.9999L120 181H208.25C215.763 162.458 220 142.237 220 121C220 98.9085 202.091 80.9999 180 80.9999Z" fill="#5555FF"/>
<path fill-rule="evenodd" clip-rule="evenodd" d="M32.9375 55.9998C31.0593 60.6352 30 65.6906 30 70.9998C30 76.5226 34.4772 80.9998 40 80.9998L55 55.9998H32.9375Z" fill="#FFAA00"/>
<path fill-rule="evenodd" clip-rule="evenodd" d="M55 55.9998L40 80.9998C56.7822 80.9998 71.1256 70.6524 77.0625 55.9998H55Z" fill="#00AA00"/>
<path fill-rule="evenodd" clip-rule="evenodd" d="M70 30.9998C53.2178 30.9998 38.8744 41.3471 32.9375 55.9998H55L70 30.9998Z" fill="#FF5555"/>
<path fill-rule="evenodd" clip-rule="evenodd" d="M70 30.9998L55 55.9998H77.0625C78.9407 51.3643 80 46.3089 80 40.9998C80 35.4769 75.5228 30.9998 70 30.9998Z" fill="#5555FF"/>
<path fill-rule="evenodd" clip-rule="evenodd" d="M162.938 306C161.059 310.635 160 315.691 160 321C160 326.523 164.477 331 170 331L185 306H162.938Z" fill="#FFAA00"/>
<path fill-rule="evenodd" clip-rule="evenodd" d="M185 306L170 331C186.782 331 201.126 320.652 207.062 306H185Z" fill="#00AA00"/>
<path fill-rule="evenodd" clip-rule="evenodd" d="M200 281C183.218 281 168.874 291.347 162.938 306H185L200 281Z" fill="#FF5555"/>
<path fill-rule="evenodd" clip-rule="evenodd" d="M200 281L185 306H207.062C208.941 301.364 210 296.309 210 291C210 285.477 205.523 281 200 281Z" fill="#5555FF"/>
<path d="M180 80.9999C112.871 80.9999 55.4976 122.389 31.75 181C24.2373 199.542 20 219.763 20 241C20 263.091 37.9086 281 60 281C127.129 281 184.502 239.611 208.25 181C215.763 162.458 220 142.237 220 121C220 98.9085 202.091 80.9999 180 80.9999Z" stroke="white" stroke-width="4"/>
<path d="M70 30.9999C53.2178 30.9999 38.8744 41.3472 32.9375 55.9999C31.0593 60.6353 30 65.6907 30 70.9999C30 76.5227 34.4772 80.9999 40 80.9999C56.7822 80.9999 71.1256 70.6526 77.0625 55.9999C78.9407 51.3644 80 46.309 80 40.9999C80 35.477 75.5228 30.9999 70 30.9999Z" stroke="white" stroke-width="4"/>
<path d="M200 281C183.218 281 168.874 291.347 162.938 306C161.059 310.635 160 315.691 160 321C160 326.523 164.477 331 170 331C186.782 331 201.126 320.653 207.062 306C208.941 301.364 210 296.309 210 291C210 285.477 205.523 281 200 281Z" stroke="white" stroke-width="4"/>
</svg>
